<svg width="489" height="33" viewBox="0 0 489 33" fill="none" xmlns="http://www.w3.org/2000/svg">
<path d="M0.528442 30.9999V1.90896H6.67901V14.7357H7.06253L17.5313 1.90896H24.9034L14.108 14.9345L25.0313 30.9999H17.6733L9.70458 19.0396L6.67901 22.7328V30.9999H0.528442Z" fill="#A31615"/>
<path d="M30.5142 32.3919L27.7444 30.5169L48.5824 0.57373L51.3523 2.44873L30.5142 32.3919ZM53.1989 16.4544C53.1989 19.6268 52.5976 22.3256 51.3949 24.551C50.2017 26.7764 48.573 28.4762 46.5086 29.6504C44.4536 30.8152 42.143 31.3976 39.5767 31.3976C36.9915 31.3976 34.6714 30.8105 32.6165 29.6362C30.5616 28.462 28.9375 26.7622 27.7444 24.5368C26.5512 22.3114 25.9546 19.6173 25.9546 16.4544C25.9546 13.2821 26.5512 10.5832 27.7444 8.35782C28.9375 6.13244 30.5616 4.43737 32.6165 3.2726C34.6714 2.09835 36.9915 1.51123 39.5767 1.51123C42.143 1.51123 44.4536 2.09835 46.5086 3.2726C48.573 4.43737 50.2017 6.13244 51.3949 8.35782C52.5976 10.5832 53.1989 13.2821 53.1989 16.4544ZM46.9631 16.4544C46.9631 14.3995 46.6553 12.6665 46.0398 11.2555C45.4337 9.84457 44.5767 8.77449 43.4688 8.04532C42.3608 7.31616 41.0635 6.95157 39.5767 6.95157C38.09 6.95157 36.7926 7.31616 35.6847 8.04532C34.5767 8.77449 33.715 9.84457 33.0995 11.2555C32.4934 12.6665 32.1904 14.3995 32.1904 16.4544C32.1904 18.5093 32.4934 20.2423 33.0995 21.6533C33.715 23.0643 34.5767 24.1343 35.6847 24.8635C36.7926 25.5927 38.09 25.9573 39.5767 25.9573C41.0635 25.9573 42.3608 25.5927 43.4688 24.8635C44.5767 24.1343 45.4337 23.0643 46.0398 21.6533C46.6553 20.2423 46.9631 18.5093 46.9631 16.4544Z" fill="#A31615"/>
<path d="M57.755 30.9999V1.90896H69.4027C71.5429 1.90896 73.3279 2.22619 74.7578 2.86066C76.1878 3.49513 77.2626 4.37581 77.9823 5.50271C78.702 6.62013 79.0618 7.90801 79.0618 9.36635C79.0618 10.5027 78.8345 11.5018 78.38 12.3635C77.9255 13.2158 77.3005 13.9165 76.505 14.4658C75.719 15.0055 74.8194 15.3891 73.8061 15.6163V15.9004C74.9141 15.9478 75.951 16.2603 76.9169 16.8379C77.8923 17.4156 78.683 18.2252 79.2891 19.2669C79.8952 20.2991 80.1982 21.5302 80.1982 22.9601C80.1982 24.5037 79.8147 25.8815 79.0476 27.0936C78.29 28.2963 77.1679 29.248 75.6811 29.9487C74.1944 30.6495 72.362 30.9999 70.184 30.9999H57.755ZM63.9056 25.9715H68.9198C70.6338 25.9715 71.8838 25.6448 72.6698 24.9913C73.4558 24.3285 73.8488 23.4478 73.8488 22.3493C73.8488 21.5444 73.6546 20.8341 73.2664 20.2186C72.8781 19.6031 72.3241 19.1201 71.6044 18.7698C70.8942 18.4194 70.0467 18.2442 69.0618 18.2442H63.9056V25.9715ZM63.9056 14.0823H68.4652C69.308 14.0823 70.0561 13.9355 70.7095 13.6419C71.3724 13.3389 71.8933 12.9127 72.272 12.3635C72.6603 11.8143 72.8544 11.1561 72.8544 10.3891C72.8544 9.33794 72.4804 8.4904 71.7323 7.84646C70.9936 7.20252 69.9425 6.88055 68.5789 6.88055H63.9056V14.0823Z" fill="#A31615"/>
<path d="M84.2003 30.9999V1.90896H103.803V6.97998H90.3509V13.9118H102.794V18.9828H90.3509V25.9288H103.859V30.9999H84.2003Z" fill="#A31615"/>
<path d="M133.025 1.90896V30.9999H127.712L115.056 12.6902H114.843V30.9999H108.693V1.90896H114.09L126.647 20.2044H126.903V1.90896H133.025Z" fill="#A31615"/>
<path d="M138.107 30.9999V1.90896H144.257V13.9118H156.743V1.90896H162.879V30.9999H156.743V18.9828H144.257V30.9999H138.107Z" fill="#A31615"/>
<path d="M172.965 30.9999H166.374L176.416 1.90896H184.342L194.371 30.9999H187.78L180.493 8.55669H180.266L172.965 30.9999ZM172.553 19.5652H188.121V24.3663H172.553V19.5652Z" fill="#A31615"/>
<path d="M199.495 1.90896L206.526 24.0112H206.796L213.842 1.90896H220.66L210.631 30.9999H202.705L192.663 1.90896H199.495Z" fill="#A31615"/>
<path d="M248.494 1.90896V30.9999H243.181L230.525 12.6902H230.312V30.9999H224.161V1.90896H229.559L242.116 20.2044H242.371V1.90896H248.494Z" fill="#A31615"/>
<path d="M253.575 30.9999V1.90896H273.178V6.97998H259.726V13.9118H272.169V18.9828H259.726V25.9288H273.234V30.9999H253.575Z" fill="#A31615"/>
<path d="M278.068 30.9999V1.90896H289.545C291.742 1.90896 293.617 2.30195 295.17 3.08794C296.732 3.86445 297.921 4.96767 298.735 6.3976C299.559 7.81805 299.971 9.48945 299.971 11.4118C299.971 13.3436 299.554 15.0055 298.721 16.3976C297.888 17.7802 296.68 18.8408 295.099 19.5794C293.527 20.318 291.623 20.6874 289.389 20.6874H281.704V15.7442H288.394C289.568 15.7442 290.544 15.5832 291.32 15.2612C292.097 14.9393 292.675 14.4563 293.053 13.8124C293.442 13.1684 293.636 12.3682 293.636 11.4118C293.636 10.4459 293.442 9.6315 293.053 8.96862C292.675 8.30574 292.092 7.80384 291.306 7.46294C290.53 7.11256 289.55 6.93737 288.366 6.93737H284.218V30.9999H278.068ZM293.778 17.7612L301.008 30.9999H294.218L287.144 17.7612H293.778Z" fill="#A31615"/>
<path d="M304.318 30.9999V1.90896H315.965C318.105 1.90896 319.89 2.22619 321.32 2.86066C322.75 3.49513 323.825 4.37581 324.545 5.50271C325.264 6.62013 325.624 7.90801 325.624 9.36635C325.624 10.5027 325.397 11.5018 324.943 12.3635C324.488 13.2158 323.863 13.9165 323.068 14.4658C322.282 15.0055 321.382 15.3891 320.369 15.6163V15.9004C321.477 15.9478 322.514 16.2603 323.479 16.8379C324.455 17.4156 325.246 18.2252 325.852 19.2669C326.458 20.2991 326.761 21.5302 326.761 22.9601C326.761 24.5037 326.377 25.8815 325.61 27.0936C324.853 28.2963 323.73 29.248 322.244 29.9487C320.757 30.6495 318.925 30.9999 316.746 30.9999H304.318ZM310.468 25.9715H315.482C317.196 25.9715 318.446 25.6448 319.232 24.9913C320.018 24.3285 320.411 23.4478 320.411 22.3493C320.411 21.5444 320.217 20.8341 319.829 20.2186C319.441 19.6031 318.887 19.1201 318.167 18.7698C317.457 18.4194 316.609 18.2442 315.624 18.2442H310.468V25.9715ZM310.468 14.0823H315.028C315.871 14.0823 316.619 13.9355 317.272 13.6419C317.935 13.3389 318.456 12.9127 318.835 12.3635C319.223 11.8143 319.417 11.1561 319.417 10.3891C319.417 9.33794 319.043 8.4904 318.295 7.84646C317.556 7.20252 316.505 6.88055 315.141 6.88055H310.468V14.0823Z" fill="#A31615"/>
<path d="M336.913 1.90896V30.9999H330.763V1.90896H336.913Z" fill="#A31615"/>
<path d="M341.974 30.9999V1.90896H348.124V25.9288H360.596V30.9999H341.974Z" fill="#A31615"/>
<path d="M364.669 30.9999V1.90896H370.82V25.9288H383.291V30.9999H364.669Z" fill="#A31615"/>
<path d="M387.364 30.9999V1.90896H406.967V6.97998H393.515V13.9118H405.958V18.9828H393.515V25.9288H407.023V30.9999H387.364Z" fill="#A31615"/>
<path d="M422.169 30.9999H411.857V1.90896H422.254C425.18 1.90896 427.699 2.49134 429.811 3.65612C431.923 4.81142 433.547 6.47335 434.683 8.64191C435.829 10.8105 436.402 13.4052 436.402 16.426C436.402 19.4563 435.829 22.0605 434.683 24.2385C433.547 26.4165 431.913 28.0879 429.783 29.2527C427.662 30.4175 425.124 30.9999 422.169 30.9999ZM418.007 25.73H421.913C423.732 25.73 425.261 25.408 426.501 24.7641C427.751 24.1107 428.689 23.1021 429.314 21.7385C429.948 20.3654 430.266 18.5946 430.266 16.426C430.266 14.2764 429.948 12.5198 429.314 11.1561C428.689 9.79248 427.756 8.78869 426.516 8.14475C425.275 7.50081 423.746 7.17885 421.928 7.17885H418.007V25.73Z" fill="#A31615"/>
<path d="M440.958 30.9999V1.90896H460.56V6.97998H447.109V13.9118H459.552V18.9828H447.109V25.9288H460.617V30.9999H440.958Z" fill="#A31615"/>
<path d="M465.45 30.9999V1.90896H476.928C479.125 1.90896 481 2.30195 482.553 3.08794C484.115 3.86445 485.304 4.96767 486.118 6.3976C486.942 7.81805 487.354 9.48945 487.354 11.4118C487.354 13.3436 486.937 15.0055 486.104 16.3976C485.27 17.7802 484.063 18.8408 482.482 19.5794C480.91 20.318 479.006 20.6874 476.771 20.6874H469.087V15.7442H475.777C476.951 15.7442 477.927 15.5832 478.703 15.2612C479.48 14.9393 480.057 14.4563 480.436 13.8124C480.824 13.1684 481.018 12.3682 481.018 11.4118C481.018 10.4459 480.824 9.6315 480.436 8.96862C480.057 8.30574 479.475 7.80384 478.689 7.46294C477.912 7.11256 476.932 6.93737 475.749 6.93737H471.601V30.9999H465.45ZM481.161 17.7612L488.391 30.9999H481.601L474.527 17.7612H481.161Z" fill="#A31615"/>
</svg>
